<svg xmlns="http://www.w3.org/2000/svg" x="0px" y="0px" viewBox="0 0 380.7 287.6" enable-background="new 0 0 380.7 287.6" xml:space="preserve">
	<path fill="#323233" d="M68.2,55C54.3,71.1,46,87.5,43.1,104.2c-1.6,8.8-2.4,16.4-2.4,22.7c0,7.3,0.8,13.3,2.4,18
		c14.8-15.5,33.6-23.2,56.4-23.2s41.2,6.6,55.4,19.9s21.3,31.6,21.3,54.9c0,22.1-7.5,40.1-22.5,54c-15,13.9-34,20.8-57.1,20.8
		c-31.6,0-54.6-11.4-69.2-34.1c-6.6-9.8-11.8-21.9-15.6-36.2c-3.8-14.4-5.7-29.1-5.7-44.3c0-33.2,8.5-63.5,25.6-90.9
		S74.2,16.9,108,1.5l9,17.5C98.4,26.9,82.1,38.9,68.2,55z M268.1,55c-13.9,16.1-22.3,32.5-25.1,49.3c-1.6,8.8-2.4,16.4-2.4,22.7
		c0,7.3,0.8,13.3,2.4,18c14.8-15.5,33.6-23.2,56.4-23.2s41.2,6.6,55.4,19.9s21.3,31.6,21.3,54.9c0,22.1-7.5,40.1-22.5,54
		c-15,13.9-34,20.8-57.1,20.8c-31.6,0-54.6-11.4-69.2-34.1c-6.6-9.8-11.8-21.9-15.6-36.2c-3.8-14.4-5.7-29.1-5.7-44.3
		c0-33.2,8.5-63.5,25.6-90.9s42.5-48.9,76.3-64.4l9,17.5C298.3,26.9,282,38.9,268.1,55z"/>
</svg>